
<svg width="32" height="33" viewBox="0 0 32 33" fill="none" xmlns="http://www.w3.org/2000/svg">
<path fill-rule="evenodd" clip-rule="evenodd" d="M16 0.5C7.16344 0.5 0 7.66344 0 16.5C0 25.3366 7.16344 32.5 16 32.5C24.8366 32.5 32 25.3366 32 16.5C32 7.66344 24.8366 0.5 16 0.5ZM12.4822 8.01822C13.3924 7.9768 13.6833 7.96667 16.0008 7.96667H15.9981C18.3164 7.96667 18.6062 7.9768 19.5164 8.01822C20.4248 8.05982 21.0453 8.20365 21.5893 8.41467C22.1511 8.63245 22.6258 8.92401 23.1004 9.39868C23.5751 9.873 23.8667 10.3491 24.0853 10.9103C24.2951 11.4529 24.4391 12.073 24.4818 12.9815C24.5227 13.8917 24.5333 14.1826 24.5333 16.5001C24.5333 18.8176 24.5227 19.1078 24.4818 20.018C24.4391 20.9261 24.2951 21.5464 24.0853 22.0891C23.8667 22.6502 23.5751 23.1263 23.1004 23.6006C22.6263 24.0753 22.1509 24.3675 21.5898 24.5855C21.0469 24.7965 20.4261 24.9404 19.5176 24.982C18.6074 25.0234 18.3174 25.0335 15.9997 25.0335C13.6824 25.0335 13.3917 25.0234 12.4815 24.982C11.5732 24.9404 10.9529 24.7965 10.41 24.5855C9.84909 24.3675 9.373 24.0753 8.89886 23.6006C8.42437 23.1263 8.13281 22.6502 7.91467 22.0889C7.70382 21.5464 7.56 20.9263 7.51822 20.0178C7.47698 19.1076 7.46667 18.8176 7.46667 16.5001C7.46667 14.1826 7.47733 13.8915 7.51804 12.9813C7.55893 12.0732 7.70294 11.4529 7.91449 10.9102C8.13316 10.3491 8.42472 9.873 8.89939 9.39868C9.37371 8.92419 9.8498 8.63263 10.4111 8.41467C10.9536 8.20365 11.5737 8.05982 12.4822 8.01822Z" fill="#D8A9DB"/>
<path fill-rule="evenodd" clip-rule="evenodd" d="M15.2352 9.50457C15.3839 9.50434 15.5438 9.50441 15.7163 9.50449L16.0008 9.50457C18.2792 9.50457 18.5492 9.51275 19.449 9.55364C20.281 9.59169 20.7325 9.73071 21.0333 9.84751C21.4316 10.0022 21.7155 10.1871 22.014 10.4857C22.3126 10.7844 22.4975 11.0689 22.6526 11.4671C22.7694 11.7675 22.9086 12.2191 22.9464 13.0511C22.9873 13.9507 22.9962 14.2209 22.9962 16.4982C22.9962 18.7756 22.9873 19.0458 22.9464 19.9454C22.9084 20.7774 22.7694 21.229 22.6526 21.5294C22.4979 21.9276 22.3126 22.2112 22.014 22.5097C21.7153 22.8084 21.4317 22.9932 21.0333 23.1479C20.7329 23.2653 20.281 23.4039 19.449 23.442C18.5494 23.4829 18.2792 23.4917 16.0008 23.4917C13.7222 23.4917 13.4521 23.4829 12.5525 23.442C11.7205 23.4036 11.269 23.2645 10.968 23.1477C10.5698 22.9931 10.2853 22.8082 9.98665 22.5095C9.68798 22.2108 9.50309 21.9271 9.34806 21.5287C9.23126 21.2283 9.09206 20.7767 9.05419 19.9447C9.0133 19.0451 9.00513 18.7749 9.00513 16.4961C9.00513 14.2173 9.0133 13.9485 9.05419 13.049C9.09224 12.217 9.23126 11.7654 9.34806 11.4646C9.50273 11.0664 9.68798 10.7819 9.98665 10.4833C10.2853 10.1846 10.5698 9.99969 10.968 9.84467C11.2688 9.72733 11.7205 9.58866 12.5525 9.55044C13.3397 9.51489 13.6448 9.50422 15.2352 9.50244V9.50457ZM20.5558 10.9215C19.9905 10.9215 19.5318 11.3796 19.5318 11.9451C19.5318 12.5105 19.9905 12.9691 20.5558 12.9691C21.1212 12.9691 21.5798 12.5105 21.5798 11.9451C21.5798 11.3798 21.1212 10.9211 20.5558 10.9211V10.9215ZM11.6185 16.5002C11.6185 14.0801 13.5805 12.118 16.0006 12.1179C18.4207 12.1179 20.3823 14.0801 20.3823 16.5002C20.3823 18.9203 18.4209 20.8816 16.0008 20.8816C13.5806 20.8816 11.6185 18.9203 11.6185 16.5002Z" fill="#D8A9DB"/>
<path d="M16.0007 13.6555C17.5716 13.6555 18.8452 14.929 18.8452 16.5C18.8452 18.0709 17.5716 19.3445 16.0007 19.3445C14.4297 19.3445 13.1562 18.0709 13.1562 16.5C13.1562 14.929 14.4297 13.6555 16.0007 13.6555Z" fill="#D8A9DB"/>
</svg>
