
<svg width="32" height="33" viewBox="0 0 32 33" fill="none" xmlns="http://www.w3.org/2000/svg">
<path fill-rule="evenodd" clip-rule="evenodd" d="M0 16.5C0 25.3366 7.16344 32.5 16 32.5C24.8366 32.5 32 25.3366 32 16.5C32 7.66344 24.8366 0.5 16 0.5C7.16344 0.5 0 7.66344 0 16.5ZM26.0414 15.8877C26.0393 21.1322 21.773 25.3995 16.5274 25.4017H16.5234C14.9311 25.4011 13.3665 25.0016 11.9769 24.2436L6.93333 25.5667L8.28308 20.6366C7.45049 19.1937 7.01239 17.557 7.0131 15.8802C7.01519 10.6345 11.2832 6.36667 16.5273 6.36667C19.0724 6.36777 21.4612 7.35858 23.2575 9.15694C25.0537 10.9552 26.0424 13.3456 26.0414 15.8877Z" fill="#D8A9DB"/>
<path fill-rule="evenodd" clip-rule="evenodd" d="M9.21759 23.3064L12.2105 22.5213L12.4993 22.6926C13.7134 23.4131 15.1051 23.7944 16.5241 23.7949H16.5273C20.8858 23.7949 24.4332 20.2474 24.435 15.8871C24.4358 13.7741 23.614 11.7874 22.121 10.2927C20.6281 8.79794 18.6426 7.97437 16.5304 7.97363C12.1686 7.97363 8.62112 11.5207 8.61939 15.8807C8.61877 17.3749 9.03685 18.8301 9.82843 20.0891L10.0164 20.3883L9.21759 23.3064ZM20.9949 17.936C21.1607 18.0162 21.2726 18.0703 21.3205 18.1501C21.3799 18.2492 21.3799 18.7252 21.1819 19.2806C20.9837 19.8359 20.034 20.3427 19.5772 20.4109C19.1677 20.4721 18.6494 20.4977 18.0799 20.3167C17.7346 20.2071 17.2918 20.0609 16.7247 19.8159C14.496 18.8536 12.99 16.6936 12.7053 16.2854C12.6854 16.2568 12.6714 16.2368 12.6636 16.2264L12.6617 16.2238C12.5359 16.056 11.6929 14.9312 11.6929 13.7672C11.6929 12.6722 12.2308 12.0982 12.4784 11.834C12.4954 11.8159 12.511 11.7993 12.525 11.784C12.7429 11.546 13.0004 11.4865 13.1589 11.4865C13.3174 11.4865 13.476 11.488 13.6145 11.4949C13.6316 11.4958 13.6494 11.4957 13.6678 11.4956C13.8063 11.4948 13.979 11.4938 14.1494 11.903C14.2149 12.0605 14.3108 12.294 14.412 12.5403C14.6166 13.0383 14.8426 13.5885 14.8823 13.6681C14.9418 13.7871 14.9814 13.9259 14.9022 14.0846C14.8903 14.1084 14.8793 14.1309 14.8687 14.1524C14.8092 14.2739 14.7654 14.3632 14.6644 14.4812C14.6247 14.5276 14.5837 14.5776 14.5426 14.6276C14.4608 14.7272 14.379 14.8267 14.3078 14.8977C14.1888 15.0162 14.0649 15.1448 14.2036 15.3828C14.3423 15.6208 14.8194 16.3993 15.5261 17.0297C16.2858 17.7073 16.946 17.9937 17.2807 18.1388C17.3461 18.1672 17.399 18.1901 17.4378 18.2096C17.6755 18.3286 17.8142 18.3087 17.9528 18.1501C18.0915 17.9914 18.5471 17.4559 18.7056 17.218C18.864 16.9801 19.0226 17.0197 19.2404 17.099C19.4584 17.1784 20.6271 17.7534 20.8649 17.8724C20.9113 17.8956 20.9547 17.9166 20.9949 17.936Z" fill="#D8A9DB"/>
</svg>
